<mxfile host="app.diagrams.net" modified="2024-02-20T15:02:22.609Z" agent="Mozilla/5.0 (Windows NT 10.0; Win64; x64) AppleWebKit/537.36 (KHTML, like Gecko) Chrome/121.0.0.0 Safari/537.36 Edg/121.0.0.0" etag="itQO8A18fQVBi2VFRWcE" version="23.1.5" type="github" pages="2">
  <diagram name="Seite-1" id="gs12MVztb20JZIc7xro1">
    <mxGraphModel dx="786" dy="506" grid="1" gridSize="10" guides="1" tooltips="1" connect="1" arrows="1" fold="1" page="1" pageScale="1" pageWidth="827" pageHeight="1169" math="0" shadow="0">
      <root>
        <mxCell id="0" />
        <mxCell id="1" parent="0" />
        <mxCell id="27TrGg73hTqypq3Gkt0H-1" value="RU00-A&lt;br&gt;Arista 7280" style="rounded=0;whiteSpace=wrap;html=1;" parent="1" vertex="1">
          <mxGeometry x="120" y="60" width="120" height="60" as="geometry" />
        </mxCell>
        <mxCell id="27TrGg73hTqypq3Gkt0H-2" value="RU00-B&lt;br&gt;Arista 7280" style="rounded=0;whiteSpace=wrap;html=1;" parent="1" vertex="1">
          <mxGeometry x="480" y="60" width="120" height="60" as="geometry" />
        </mxCell>
        <mxCell id="27TrGg73hTqypq3Gkt0H-3" value="RU22-A&lt;br&gt;32Y4C" style="rounded=0;whiteSpace=wrap;html=1;" parent="1" vertex="1">
          <mxGeometry x="160" y="200" width="120" height="60" as="geometry" />
        </mxCell>
        <mxCell id="27TrGg73hTqypq3Gkt0H-4" value="RU22-B&lt;br&gt;32Y4C" style="rounded=0;whiteSpace=wrap;html=1;" parent="1" vertex="1">
          <mxGeometry x="414" y="200" width="120" height="60" as="geometry" />
        </mxCell>
        <mxCell id="27TrGg73hTqypq3Gkt0H-5" value="" style="endArrow=none;html=1;rounded=0;entryX=0.311;entryY=1.094;entryDx=0;entryDy=0;entryPerimeter=0;exitX=0.25;exitY=0;exitDx=0;exitDy=0;" parent="1" source="27TrGg73hTqypq3Gkt0H-3" target="27TrGg73hTqypq3Gkt0H-1" edge="1">
          <mxGeometry width="50" height="50" relative="1" as="geometry">
            <mxPoint x="380" y="290" as="sourcePoint" />
            <mxPoint x="430" y="240" as="targetPoint" />
          </mxGeometry>
        </mxCell>
        <mxCell id="27TrGg73hTqypq3Gkt0H-6" value="100G" style="edgeLabel;html=1;align=center;verticalAlign=middle;resizable=0;points=[];" parent="27TrGg73hTqypq3Gkt0H-5" vertex="1" connectable="0">
          <mxGeometry x="-0.2319" y="3" relative="1" as="geometry">
            <mxPoint as="offset" />
          </mxGeometry>
        </mxCell>
        <mxCell id="27TrGg73hTqypq3Gkt0H-7" value="" style="endArrow=none;html=1;rounded=0;entryX=0.25;entryY=1;entryDx=0;entryDy=0;exitX=0.644;exitY=-0.028;exitDx=0;exitDy=0;exitPerimeter=0;" parent="1" source="27TrGg73hTqypq3Gkt0H-3" target="27TrGg73hTqypq3Gkt0H-2" edge="1">
          <mxGeometry width="50" height="50" relative="1" as="geometry">
            <mxPoint x="380" y="290" as="sourcePoint" />
            <mxPoint x="430" y="240" as="targetPoint" />
          </mxGeometry>
        </mxCell>
        <mxCell id="27TrGg73hTqypq3Gkt0H-8" value="100G" style="edgeLabel;html=1;align=center;verticalAlign=middle;resizable=0;points=[];" parent="27TrGg73hTqypq3Gkt0H-7" vertex="1" connectable="0">
          <mxGeometry x="-0.1722" y="-2" relative="1" as="geometry">
            <mxPoint as="offset" />
          </mxGeometry>
        </mxCell>
        <mxCell id="27TrGg73hTqypq3Gkt0H-9" value="" style="endArrow=none;html=1;rounded=0;entryX=0.75;entryY=1;entryDx=0;entryDy=0;exitX=0.25;exitY=0;exitDx=0;exitDy=0;" parent="1" source="27TrGg73hTqypq3Gkt0H-4" target="27TrGg73hTqypq3Gkt0H-1" edge="1">
          <mxGeometry width="50" height="50" relative="1" as="geometry">
            <mxPoint x="380" y="290" as="sourcePoint" />
            <mxPoint x="430" y="240" as="targetPoint" />
          </mxGeometry>
        </mxCell>
        <mxCell id="27TrGg73hTqypq3Gkt0H-10" value="" style="endArrow=none;html=1;rounded=0;entryX=0.75;entryY=1;entryDx=0;entryDy=0;exitX=0.75;exitY=0;exitDx=0;exitDy=0;" parent="1" source="27TrGg73hTqypq3Gkt0H-4" target="27TrGg73hTqypq3Gkt0H-2" edge="1">
          <mxGeometry width="50" height="50" relative="1" as="geometry">
            <mxPoint x="454" y="210" as="sourcePoint" />
            <mxPoint x="220" y="130" as="targetPoint" />
          </mxGeometry>
        </mxCell>
        <mxCell id="27TrGg73hTqypq3Gkt0H-11" value="100G" style="edgeLabel;html=1;align=center;verticalAlign=middle;resizable=0;points=[];" parent="27TrGg73hTqypq3Gkt0H-10" vertex="1" connectable="0">
          <mxGeometry x="-0.1944" y="-1" relative="1" as="geometry">
            <mxPoint as="offset" />
          </mxGeometry>
        </mxCell>
        <mxCell id="27TrGg73hTqypq3Gkt0H-12" value="" style="endArrow=none;html=1;rounded=0;exitX=1;exitY=0.25;exitDx=0;exitDy=0;entryX=0;entryY=0.25;entryDx=0;entryDy=0;" parent="1" source="27TrGg73hTqypq3Gkt0H-3" target="27TrGg73hTqypq3Gkt0H-4" edge="1">
          <mxGeometry width="50" height="50" relative="1" as="geometry">
            <mxPoint x="380" y="290" as="sourcePoint" />
            <mxPoint x="430" y="240" as="targetPoint" />
          </mxGeometry>
        </mxCell>
        <mxCell id="27TrGg73hTqypq3Gkt0H-13" value="100G" style="edgeLabel;html=1;align=center;verticalAlign=middle;resizable=0;points=[];" parent="27TrGg73hTqypq3Gkt0H-12" vertex="1" connectable="0">
          <mxGeometry x="0.3831" y="-4" relative="1" as="geometry">
            <mxPoint as="offset" />
          </mxGeometry>
        </mxCell>
        <mxCell id="27TrGg73hTqypq3Gkt0H-14" value="" style="endArrow=none;html=1;rounded=0;exitX=0.989;exitY=0.639;exitDx=0;exitDy=0;entryX=-0.022;entryY=0.617;entryDx=0;entryDy=0;exitPerimeter=0;entryPerimeter=0;" parent="1" source="27TrGg73hTqypq3Gkt0H-3" target="27TrGg73hTqypq3Gkt0H-4" edge="1">
          <mxGeometry width="50" height="50" relative="1" as="geometry">
            <mxPoint x="290" y="225" as="sourcePoint" />
            <mxPoint x="424" y="225" as="targetPoint" />
          </mxGeometry>
        </mxCell>
        <mxCell id="27TrGg73hTqypq3Gkt0H-15" value="100G" style="edgeLabel;html=1;align=center;verticalAlign=middle;resizable=0;points=[];" parent="27TrGg73hTqypq3Gkt0H-14" vertex="1" connectable="0">
          <mxGeometry x="0.3831" y="-4" relative="1" as="geometry">
            <mxPoint as="offset" />
          </mxGeometry>
        </mxCell>
        <mxCell id="27TrGg73hTqypq3Gkt0H-16" value="Mgmt-Cluster-A" style="rounded=0;whiteSpace=wrap;html=1;" parent="1" vertex="1">
          <mxGeometry x="100" y="330" width="120" height="60" as="geometry" />
        </mxCell>
        <mxCell id="27TrGg73hTqypq3Gkt0H-17" value="Mgmt-Cluster-B" style="rounded=0;whiteSpace=wrap;html=1;" parent="1" vertex="1">
          <mxGeometry x="510" y="330" width="120" height="60" as="geometry" />
        </mxCell>
        <mxCell id="27TrGg73hTqypq3Gkt0H-18" value="" style="endArrow=none;html=1;rounded=0;exitX=0.25;exitY=0;exitDx=0;exitDy=0;entryX=0.25;entryY=1;entryDx=0;entryDy=0;" parent="1" source="27TrGg73hTqypq3Gkt0H-16" target="27TrGg73hTqypq3Gkt0H-3" edge="1">
          <mxGeometry width="50" height="50" relative="1" as="geometry">
            <mxPoint x="380" y="290" as="sourcePoint" />
            <mxPoint x="430" y="240" as="targetPoint" />
          </mxGeometry>
        </mxCell>
        <mxCell id="27TrGg73hTqypq3Gkt0H-19" value="8x25G" style="edgeLabel;html=1;align=center;verticalAlign=middle;resizable=0;points=[];" parent="27TrGg73hTqypq3Gkt0H-18" vertex="1" connectable="0">
          <mxGeometry x="-0.1075" relative="1" as="geometry">
            <mxPoint as="offset" />
          </mxGeometry>
        </mxCell>
        <mxCell id="27TrGg73hTqypq3Gkt0H-20" value="" style="endArrow=none;html=1;rounded=0;entryX=0.75;entryY=1;entryDx=0;entryDy=0;exitX=0.75;exitY=0;exitDx=0;exitDy=0;" parent="1" source="27TrGg73hTqypq3Gkt0H-17" target="27TrGg73hTqypq3Gkt0H-4" edge="1">
          <mxGeometry width="50" height="50" relative="1" as="geometry">
            <mxPoint x="590" y="320" as="sourcePoint" />
            <mxPoint x="200" y="270" as="targetPoint" />
          </mxGeometry>
        </mxCell>
        <mxCell id="27TrGg73hTqypq3Gkt0H-21" value="8x25G" style="edgeLabel;html=1;align=center;verticalAlign=middle;resizable=0;points=[];" parent="27TrGg73hTqypq3Gkt0H-20" vertex="1" connectable="0">
          <mxGeometry x="-0.1075" relative="1" as="geometry">
            <mxPoint as="offset" />
          </mxGeometry>
        </mxCell>
        <mxCell id="27TrGg73hTqypq3Gkt0H-22" value="OUXY-A" style="rounded=0;whiteSpace=wrap;html=1;" parent="1" vertex="1">
          <mxGeometry x="160" y="410" width="120" height="60" as="geometry" />
        </mxCell>
        <mxCell id="27TrGg73hTqypq3Gkt0H-23" value="OUXY-B" style="rounded=0;whiteSpace=wrap;html=1;" parent="1" vertex="1">
          <mxGeometry x="414" y="410" width="120" height="60" as="geometry" />
        </mxCell>
        <mxCell id="27TrGg73hTqypq3Gkt0H-24" value="" style="endArrow=none;html=1;rounded=0;exitX=0.678;exitY=0.017;exitDx=0;exitDy=0;exitPerimeter=0;entryX=0.75;entryY=1;entryDx=0;entryDy=0;" parent="1" source="27TrGg73hTqypq3Gkt0H-22" target="27TrGg73hTqypq3Gkt0H-3" edge="1">
          <mxGeometry width="50" height="50" relative="1" as="geometry">
            <mxPoint x="380" y="290" as="sourcePoint" />
            <mxPoint x="430" y="240" as="targetPoint" />
          </mxGeometry>
        </mxCell>
        <mxCell id="27TrGg73hTqypq3Gkt0H-26" value="16x10G" style="edgeLabel;html=1;align=center;verticalAlign=middle;resizable=0;points=[];" parent="27TrGg73hTqypq3Gkt0H-24" vertex="1" connectable="0">
          <mxGeometry x="-0.0277" y="-1" relative="1" as="geometry">
            <mxPoint as="offset" />
          </mxGeometry>
        </mxCell>
        <mxCell id="27TrGg73hTqypq3Gkt0H-25" value="" style="endArrow=none;html=1;rounded=0;exitX=0.25;exitY=0;exitDx=0;exitDy=0;entryX=0.183;entryY=0.983;entryDx=0;entryDy=0;entryPerimeter=0;" parent="1" source="27TrGg73hTqypq3Gkt0H-23" target="27TrGg73hTqypq3Gkt0H-4" edge="1">
          <mxGeometry width="50" height="50" relative="1" as="geometry">
            <mxPoint x="251" y="421" as="sourcePoint" />
            <mxPoint x="260" y="270" as="targetPoint" />
          </mxGeometry>
        </mxCell>
        <mxCell id="27TrGg73hTqypq3Gkt0H-27" value="16x10G" style="edgeLabel;html=1;align=center;verticalAlign=middle;resizable=0;points=[];" parent="27TrGg73hTqypq3Gkt0H-25" vertex="1" connectable="0">
          <mxGeometry x="-0.0021" relative="1" as="geometry">
            <mxPoint as="offset" />
          </mxGeometry>
        </mxCell>
      </root>
    </mxGraphModel>
  </diagram>
  <diagram id="Gzo3xXNjpzGgJxfg6n6k" name="Seite-2">
    <mxGraphModel dx="1123" dy="723" grid="1" gridSize="10" guides="1" tooltips="1" connect="1" arrows="1" fold="1" page="1" pageScale="1" pageWidth="827" pageHeight="1169" math="0" shadow="0">
      <root>
        <mxCell id="0" />
        <mxCell id="1" parent="0" />
        <mxCell id="iDLeOFEi5p_KF_u8_lXv-2" value="" style="rounded=0;whiteSpace=wrap;html=1;" vertex="1" parent="1">
          <mxGeometry x="20" y="30" width="790" height="580" as="geometry" />
        </mxCell>
        <mxCell id="hVeL7Z5NDfVotXv91kb7-1" value="RU00-A&lt;br&gt;Arista 7280" style="rounded=0;whiteSpace=wrap;html=1;" parent="1" vertex="1">
          <mxGeometry x="149" y="60" width="120" height="60" as="geometry" />
        </mxCell>
        <mxCell id="hVeL7Z5NDfVotXv91kb7-2" value="RU00-B&lt;br&gt;Arista 7280" style="rounded=0;whiteSpace=wrap;html=1;" parent="1" vertex="1">
          <mxGeometry x="509" y="60" width="120" height="60" as="geometry" />
        </mxCell>
        <mxCell id="hVeL7Z5NDfVotXv91kb7-3" value="RU22-A&lt;br&gt;5406" style="rounded=0;whiteSpace=wrap;html=1;" parent="1" vertex="1">
          <mxGeometry x="189" y="200" width="120" height="60" as="geometry" />
        </mxCell>
        <mxCell id="hVeL7Z5NDfVotXv91kb7-4" value="RU22-B&lt;br&gt;5406" style="rounded=0;whiteSpace=wrap;html=1;" parent="1" vertex="1">
          <mxGeometry x="443" y="200" width="120" height="60" as="geometry" />
        </mxCell>
        <mxCell id="hVeL7Z5NDfVotXv91kb7-5" value="" style="endArrow=none;html=1;rounded=0;entryX=0.311;entryY=1.094;entryDx=0;entryDy=0;entryPerimeter=0;exitX=0.25;exitY=0;exitDx=0;exitDy=0;" parent="1" source="hVeL7Z5NDfVotXv91kb7-3" target="hVeL7Z5NDfVotXv91kb7-1" edge="1">
          <mxGeometry width="50" height="50" relative="1" as="geometry">
            <mxPoint x="409" y="290" as="sourcePoint" />
            <mxPoint x="459" y="240" as="targetPoint" />
          </mxGeometry>
        </mxCell>
        <mxCell id="hVeL7Z5NDfVotXv91kb7-6" value="10G" style="edgeLabel;html=1;align=center;verticalAlign=middle;resizable=0;points=[];" parent="hVeL7Z5NDfVotXv91kb7-5" vertex="1" connectable="0">
          <mxGeometry x="-0.2319" y="3" relative="1" as="geometry">
            <mxPoint as="offset" />
          </mxGeometry>
        </mxCell>
        <mxCell id="hVeL7Z5NDfVotXv91kb7-7" value="" style="endArrow=none;html=1;rounded=0;entryX=0.25;entryY=1;entryDx=0;entryDy=0;exitX=0.644;exitY=-0.028;exitDx=0;exitDy=0;exitPerimeter=0;" parent="1" source="hVeL7Z5NDfVotXv91kb7-3" target="hVeL7Z5NDfVotXv91kb7-2" edge="1">
          <mxGeometry width="50" height="50" relative="1" as="geometry">
            <mxPoint x="409" y="290" as="sourcePoint" />
            <mxPoint x="459" y="240" as="targetPoint" />
          </mxGeometry>
        </mxCell>
        <mxCell id="hVeL7Z5NDfVotXv91kb7-8" value="10G" style="edgeLabel;html=1;align=center;verticalAlign=middle;resizable=0;points=[];" parent="hVeL7Z5NDfVotXv91kb7-7" vertex="1" connectable="0">
          <mxGeometry x="-0.1722" y="-2" relative="1" as="geometry">
            <mxPoint as="offset" />
          </mxGeometry>
        </mxCell>
        <mxCell id="hVeL7Z5NDfVotXv91kb7-9" value="" style="endArrow=none;html=1;rounded=0;entryX=0.75;entryY=1;entryDx=0;entryDy=0;exitX=0.25;exitY=0;exitDx=0;exitDy=0;" parent="1" source="hVeL7Z5NDfVotXv91kb7-4" target="hVeL7Z5NDfVotXv91kb7-1" edge="1">
          <mxGeometry width="50" height="50" relative="1" as="geometry">
            <mxPoint x="409" y="290" as="sourcePoint" />
            <mxPoint x="459" y="240" as="targetPoint" />
          </mxGeometry>
        </mxCell>
        <mxCell id="hVeL7Z5NDfVotXv91kb7-28" value="10G" style="edgeLabel;html=1;align=center;verticalAlign=middle;resizable=0;points=[];" parent="hVeL7Z5NDfVotXv91kb7-9" vertex="1" connectable="0">
          <mxGeometry x="-0.1959" y="-2" relative="1" as="geometry">
            <mxPoint x="39" y="-6" as="offset" />
          </mxGeometry>
        </mxCell>
        <mxCell id="hVeL7Z5NDfVotXv91kb7-10" value="" style="endArrow=none;html=1;rounded=0;entryX=0.75;entryY=1;entryDx=0;entryDy=0;exitX=0.75;exitY=0;exitDx=0;exitDy=0;" parent="1" source="hVeL7Z5NDfVotXv91kb7-4" target="hVeL7Z5NDfVotXv91kb7-2" edge="1">
          <mxGeometry width="50" height="50" relative="1" as="geometry">
            <mxPoint x="483" y="210" as="sourcePoint" />
            <mxPoint x="249" y="130" as="targetPoint" />
          </mxGeometry>
        </mxCell>
        <mxCell id="hVeL7Z5NDfVotXv91kb7-11" value="10G" style="edgeLabel;html=1;align=center;verticalAlign=middle;resizable=0;points=[];" parent="hVeL7Z5NDfVotXv91kb7-10" vertex="1" connectable="0">
          <mxGeometry x="-0.1944" y="-1" relative="1" as="geometry">
            <mxPoint as="offset" />
          </mxGeometry>
        </mxCell>
        <mxCell id="hVeL7Z5NDfVotXv91kb7-12" value="" style="endArrow=none;html=1;rounded=0;exitX=1;exitY=0.25;exitDx=0;exitDy=0;entryX=0;entryY=0.25;entryDx=0;entryDy=0;" parent="1" source="hVeL7Z5NDfVotXv91kb7-3" target="hVeL7Z5NDfVotXv91kb7-4" edge="1">
          <mxGeometry width="50" height="50" relative="1" as="geometry">
            <mxPoint x="409" y="290" as="sourcePoint" />
            <mxPoint x="459" y="240" as="targetPoint" />
          </mxGeometry>
        </mxCell>
        <mxCell id="hVeL7Z5NDfVotXv91kb7-13" value="10G" style="edgeLabel;html=1;align=center;verticalAlign=middle;resizable=0;points=[];" parent="hVeL7Z5NDfVotXv91kb7-12" vertex="1" connectable="0">
          <mxGeometry x="0.3831" y="-4" relative="1" as="geometry">
            <mxPoint as="offset" />
          </mxGeometry>
        </mxCell>
        <mxCell id="hVeL7Z5NDfVotXv91kb7-14" value="" style="endArrow=none;html=1;rounded=0;exitX=0.989;exitY=0.639;exitDx=0;exitDy=0;entryX=-0.022;entryY=0.617;entryDx=0;entryDy=0;exitPerimeter=0;entryPerimeter=0;" parent="1" source="hVeL7Z5NDfVotXv91kb7-3" target="hVeL7Z5NDfVotXv91kb7-4" edge="1">
          <mxGeometry width="50" height="50" relative="1" as="geometry">
            <mxPoint x="319" y="225" as="sourcePoint" />
            <mxPoint x="453" y="225" as="targetPoint" />
          </mxGeometry>
        </mxCell>
        <mxCell id="hVeL7Z5NDfVotXv91kb7-15" value="10G" style="edgeLabel;html=1;align=center;verticalAlign=middle;resizable=0;points=[];" parent="hVeL7Z5NDfVotXv91kb7-14" vertex="1" connectable="0">
          <mxGeometry x="0.3831" y="-4" relative="1" as="geometry">
            <mxPoint as="offset" />
          </mxGeometry>
        </mxCell>
        <mxCell id="hVeL7Z5NDfVotXv91kb7-16" value="Mgmt-Cluster-A" style="rounded=0;whiteSpace=wrap;html=1;" parent="1" vertex="1">
          <mxGeometry x="39" y="410" width="120" height="60" as="geometry" />
        </mxCell>
        <mxCell id="hVeL7Z5NDfVotXv91kb7-17" value="Mgmt-Cluster-B" style="rounded=0;whiteSpace=wrap;html=1;" parent="1" vertex="1">
          <mxGeometry x="659" y="410" width="120" height="60" as="geometry" />
        </mxCell>
        <mxCell id="hVeL7Z5NDfVotXv91kb7-18" value="" style="endArrow=none;html=1;rounded=0;exitX=0.25;exitY=0;exitDx=0;exitDy=0;" parent="1" source="hVeL7Z5NDfVotXv91kb7-16" target="16hiu82Xkx6REqz7iCP8-3" edge="1">
          <mxGeometry width="50" height="50" relative="1" as="geometry">
            <mxPoint x="409" y="290" as="sourcePoint" />
            <mxPoint x="129" y="330" as="targetPoint" />
          </mxGeometry>
        </mxCell>
        <mxCell id="hVeL7Z5NDfVotXv91kb7-19" value="8x25G" style="edgeLabel;html=1;align=center;verticalAlign=middle;resizable=0;points=[];" parent="hVeL7Z5NDfVotXv91kb7-18" vertex="1" connectable="0">
          <mxGeometry x="-0.1075" relative="1" as="geometry">
            <mxPoint as="offset" />
          </mxGeometry>
        </mxCell>
        <mxCell id="hVeL7Z5NDfVotXv91kb7-20" value="" style="endArrow=none;html=1;rounded=0;exitX=0.75;exitY=0;exitDx=0;exitDy=0;" parent="1" source="hVeL7Z5NDfVotXv91kb7-17" target="16hiu82Xkx6REqz7iCP8-1" edge="1">
          <mxGeometry width="50" height="50" relative="1" as="geometry">
            <mxPoint x="619" y="320" as="sourcePoint" />
            <mxPoint x="619" y="330" as="targetPoint" />
          </mxGeometry>
        </mxCell>
        <mxCell id="hVeL7Z5NDfVotXv91kb7-21" value="8x25G" style="edgeLabel;html=1;align=center;verticalAlign=middle;resizable=0;points=[];" parent="hVeL7Z5NDfVotXv91kb7-20" vertex="1" connectable="0">
          <mxGeometry x="-0.1075" relative="1" as="geometry">
            <mxPoint as="offset" />
          </mxGeometry>
        </mxCell>
        <mxCell id="hVeL7Z5NDfVotXv91kb7-22" value="OUXY-A" style="rounded=0;whiteSpace=wrap;html=1;" parent="1" vertex="1">
          <mxGeometry x="189" y="410" width="120" height="60" as="geometry" />
        </mxCell>
        <mxCell id="hVeL7Z5NDfVotXv91kb7-23" value="OUXY-B" style="rounded=0;whiteSpace=wrap;html=1;" parent="1" vertex="1">
          <mxGeometry x="443" y="410" width="120" height="60" as="geometry" />
        </mxCell>
        <mxCell id="hVeL7Z5NDfVotXv91kb7-24" value="" style="endArrow=none;html=1;rounded=0;exitX=0.678;exitY=0.017;exitDx=0;exitDy=0;exitPerimeter=0;entryX=0.75;entryY=1;entryDx=0;entryDy=0;" parent="1" source="hVeL7Z5NDfVotXv91kb7-22" target="hVeL7Z5NDfVotXv91kb7-3" edge="1">
          <mxGeometry width="50" height="50" relative="1" as="geometry">
            <mxPoint x="409" y="290" as="sourcePoint" />
            <mxPoint x="459" y="240" as="targetPoint" />
          </mxGeometry>
        </mxCell>
        <mxCell id="hVeL7Z5NDfVotXv91kb7-25" value="16x1G/10G" style="edgeLabel;html=1;align=center;verticalAlign=middle;resizable=0;points=[];" parent="hVeL7Z5NDfVotXv91kb7-24" vertex="1" connectable="0">
          <mxGeometry x="-0.0277" y="-1" relative="1" as="geometry">
            <mxPoint as="offset" />
          </mxGeometry>
        </mxCell>
        <mxCell id="hVeL7Z5NDfVotXv91kb7-26" value="" style="endArrow=none;html=1;rounded=0;exitX=0.25;exitY=0;exitDx=0;exitDy=0;entryX=0.183;entryY=0.983;entryDx=0;entryDy=0;entryPerimeter=0;" parent="1" source="hVeL7Z5NDfVotXv91kb7-23" target="hVeL7Z5NDfVotXv91kb7-4" edge="1">
          <mxGeometry width="50" height="50" relative="1" as="geometry">
            <mxPoint x="280" y="421" as="sourcePoint" />
            <mxPoint x="289" y="270" as="targetPoint" />
          </mxGeometry>
        </mxCell>
        <mxCell id="hVeL7Z5NDfVotXv91kb7-27" value="16x1G/10G" style="edgeLabel;html=1;align=center;verticalAlign=middle;resizable=0;points=[];" parent="hVeL7Z5NDfVotXv91kb7-26" vertex="1" connectable="0">
          <mxGeometry x="-0.0021" relative="1" as="geometry">
            <mxPoint as="offset" />
          </mxGeometry>
        </mxCell>
        <mxCell id="16hiu82Xkx6REqz7iCP8-1" value="S22-B&lt;br&gt;16Y2C V2" style="rounded=0;whiteSpace=wrap;html=1;" parent="1" vertex="1">
          <mxGeometry x="559" y="300" width="120" height="60" as="geometry" />
        </mxCell>
        <mxCell id="16hiu82Xkx6REqz7iCP8-2" value="10G" style="endArrow=none;html=1;rounded=0;exitX=0.5;exitY=0;exitDx=0;exitDy=0;entryX=0.822;entryY=1.061;entryDx=0;entryDy=0;entryPerimeter=0;" parent="1" source="16hiu82Xkx6REqz7iCP8-1" target="hVeL7Z5NDfVotXv91kb7-4" edge="1">
          <mxGeometry width="50" height="50" relative="1" as="geometry">
            <mxPoint x="329" y="290" as="sourcePoint" />
            <mxPoint x="379" y="240" as="targetPoint" />
          </mxGeometry>
        </mxCell>
        <mxCell id="16hiu82Xkx6REqz7iCP8-3" value="S22-A&lt;br&gt;16Y2C V2" style="rounded=0;whiteSpace=wrap;html=1;" parent="1" vertex="1">
          <mxGeometry x="69" y="300" width="120" height="60" as="geometry" />
        </mxCell>
        <mxCell id="16hiu82Xkx6REqz7iCP8-4" value="" style="endArrow=none;html=1;rounded=0;exitX=0.75;exitY=0;exitDx=0;exitDy=0;entryX=0.25;entryY=1;entryDx=0;entryDy=0;" parent="1" source="16hiu82Xkx6REqz7iCP8-3" target="hVeL7Z5NDfVotXv91kb7-3" edge="1">
          <mxGeometry width="50" height="50" relative="1" as="geometry">
            <mxPoint x="329" y="290" as="sourcePoint" />
            <mxPoint x="379" y="240" as="targetPoint" />
          </mxGeometry>
        </mxCell>
        <mxCell id="16hiu82Xkx6REqz7iCP8-5" value="10G" style="edgeLabel;html=1;align=center;verticalAlign=middle;resizable=0;points=[];" parent="16hiu82Xkx6REqz7iCP8-4" vertex="1" connectable="0">
          <mxGeometry x="-0.1026" relative="1" as="geometry">
            <mxPoint y="-1" as="offset" />
          </mxGeometry>
        </mxCell>
        <mxCell id="16hiu82Xkx6REqz7iCP8-7" value="" style="endArrow=none;dashed=1;html=1;rounded=0;exitX=1;exitY=0.25;exitDx=0;exitDy=0;entryX=0;entryY=0.25;entryDx=0;entryDy=0;" parent="1" source="16hiu82Xkx6REqz7iCP8-3" target="16hiu82Xkx6REqz7iCP8-1" edge="1">
          <mxGeometry width="50" height="50" relative="1" as="geometry">
            <mxPoint x="329" y="290" as="sourcePoint" />
            <mxPoint x="379" y="240" as="targetPoint" />
          </mxGeometry>
        </mxCell>
        <mxCell id="16hiu82Xkx6REqz7iCP8-8" value="100G" style="edgeLabel;html=1;align=center;verticalAlign=middle;resizable=0;points=[];" parent="16hiu82Xkx6REqz7iCP8-7" vertex="1" connectable="0">
          <mxGeometry x="0.1658" y="3" relative="1" as="geometry">
            <mxPoint as="offset" />
          </mxGeometry>
        </mxCell>
      </root>
    </mxGraphModel>
  </diagram>
</mxfile>
